HIERARCHY
ROOT Hips
{
	OFFSET	0.00	0.00	0.00
	CHANNELS 6 Xposition Yposition Zposition Zrotation Xrotation Yrotation
	JOINT Chest
	{
		OFFSET	0.00	6.28	0.00
		CHANNELS 3 Zrotation Xrotation Yrotation
		JOINT Neck
		{
			OFFSET	0.00	14.30	0.00
			CHANNELS 3 Zrotation Xrotation Yrotation
			JOINT Head
			{
				OFFSET	0.00	2.64	0.00
				CHANNELS 3 Zrotation Xrotation Yrotation
				End Site
				{
					OFFSET	0.00	4.50	0.00
				}
			}
		}
		JOINT LeftCollar
		{
			OFFSET	1.12	11.36	1.87
			CHANNELS 3 Zrotation Xrotation Yrotation
			JOINT LeftUpArm
			{
				OFFSET	4.57	2.02	-1.82
				CHANNELS 3 Zrotation Xrotation Yrotation
				JOINT LeftLowArm
				{
					OFFSET	0.22	-10.35	-0.06
					CHANNELS 3 Zrotation Xrotation Yrotation
					JOINT LeftHand
					{
						OFFSET	0.09	-10.35	2.18
						CHANNELS 3 Zrotation Xrotation Yrotation
						End Site
						{
							OFFSET	0.13	-6.69	1.71
						}
					}
				}
			}
		}
		JOINT RightCollar
		{
			OFFSET	-1.12	11.36	1.87
			CHANNELS 3 Zrotation Xrotation Yrotation
			JOINT RightUpArm
			{
				OFFSET	-4.71	2.03	-1.82
				CHANNELS 3 Zrotation Xrotation Yrotation
				JOINT RightLowArm
				{
					OFFSET	-0.26	-10.43	-0.06
					CHANNELS 3 Zrotation Xrotation Yrotation
					JOINT RightHand
					{
						OFFSET	0.00	-10.26	2.18
						CHANNELS 3 Zrotation Xrotation Yrotation
						End Site
						{
							OFFSET	-0.14	-6.67	1.71
						}
					}
				}
			}
		}
	}
	JOINT LeftUpLeg
	{
		OFFSET	3.91	0.00	0.00
		CHANNELS 3 Zrotation Xrotation Yrotation
		JOINT LeftLowLeg
		{
			OFFSET	-0.44	-17.57	1.70
			CHANNELS 3 Zrotation Xrotation Yrotation
			JOINT LeftFoot
			{
				OFFSET	-0.04	-17.20	-1.48
				CHANNELS 3 Zrotation Xrotation Yrotation
				End Site
				{
					OFFSET	0.00	-3.93	5.23
				}
			}
		}
	}
	JOINT RightUpLeg
	{
		OFFSET	-3.91	0.00	0.00
		CHANNELS 3 Zrotation Xrotation Yrotation
		JOINT RightLowLeg
		{
			OFFSET	0.44	-17.62	1.70
			CHANNELS 3 Zrotation Xrotation Yrotation
			JOINT RightFoot
			{
				OFFSET	0.00	-17.14	-1.48
				CHANNELS 3 Zrotation Xrotation Yrotation
				End Site
				{
					OFFSET	0.00	-4.04	5.23
				}
			}
		}
	}
}
MOTION
Frames: 11
Frame Time: 0.04
-12.81	7.14	16.06	0.34	-0.97	79.78	-7.21	2.94	-8.07	2.77	-2.74	6.46	-12.57	-35.06	-10.34	-6.16	5.42	-0.60	54.06	9.03	20.51	-4.19	6.68	0.76	-11.31	2.70	-2.39	8.01	1.07	1.33	-30.07	21.92	-25.84	5.76	8.41	-0.51	-0.60	2.40	-0.13	7.91	-9.31	1.07	-1.86	36.20	-0.74	-29.38	22.57	14.88	5.15	-8.54	-35.49	4.55	12.96	19.67	-2.66	35.11	6.77	
-13.26	7.06	16.33	-2.32	-0.40	80.67	-6.03	4.72	-8.24	1.47	-3.33	6.37	-14.44	-35.84	-12.04	-6.18	5.74	0.11	57.95	7.56	27.89	-4.43	4.12	-0.28	-1.38	2.47	-0.29	7.02	1.96	0.45	-34.12	20.91	-24.66	6.37	8.90	-0.67	-2.75	2.41	-0.59	6.73	-9.74	1.71	-2.88	32.55	-9.94	-34.25	14.36	13.11	5.46	-11.54	-37.00	4.54	12.30	20.61	-1.95	36.32	6.33	
-13.71	6.75	16.55	-4.03	-0.28	80.58	-4.48	6.59	-8.18	0.64	-2.51	7.49	-16.21	-35.39	-13.48	-5.91	5.08	-0.58	61.06	8.23	28.83	-5.53	1.97	-0.90	13.10	2.78	2.76	5.74	2.15	0.90	-38.05	20.57	-23.55	7.01	9.71	-1.01	-6.35	2.47	-1.36	5.36	-10.19	3.69	-4.52	28.18	-24.32	-34.31	11.90	11.61	5.43	-14.74	-37.20	4.64	14.47	20.55	-3.30	35.78	7.22	
-14.13	6.32	16.73	-5.59	-0.87	79.31	-2.13	7.23	-7.97	-0.08	0.12	9.76	-17.38	-33.89	-14.21	-5.79	2.43	-3.09	69.03	7.47	26.23	-13.41	15.79	3.50	29.51	4.04	6.01	3.73	0.97	3.29	-41.85	21.51	-24.89	7.97	11.85	-2.00	-11.52	2.64	-2.46	3.86	-10.15	2.60	-5.33	23.90	-27.42	-35.87	11.18	11.81	6.16	-17.68	-36.37	4.74	17.18	20.72	-3.91	34.58	7.57	
-14.60	5.87	16.90	-6.52	-2.07	77.60	0.21	8.62	-7.87	-0.01	2.74	12.52	-17.33	-30.57	-13.48	-5.92	0.88	-4.82	67.91	3.70	27.68	-0.25	24.17	2.70	33.84	4.53	6.80	2.60	0.17	5.27	-45.21	20.30	-26.34	9.07	13.51	-2.63	-20.70	3.19	-4.35	3.88	-11.59	8.07	-4.89	27.54	-22.51	-23.85	11.85	7.46	7.65	-19.18	-37.56	4.29	18.28	19.12	-5.31	33.82	8.44	
-15.12	5.46	17.13	-7.08	-3.32	75.97	1.29	10.57	-7.86	1.18	5.03	14.53	-15.56	-25.55	-11.04	-5.55	0.22	-5.74	67.61	4.26	25.41	3.08	21.45	1.51	40.08	5.33	7.86	2.67	-0.65	6.37	-47.77	15.85	-25.39	9.12	18.14	-4.75	-30.06	4.05	-6.17	4.07	-12.32	13.07	-4.68	31.05	-20.60	-4.83	8.67	1.01	9.11	-20.81	-32.94	4.92	20.42	25.92	0.45	33.35	4.71	
-15.72	5.20	17.46	-7.23	-3.43	74.67	-0.47	13.07	-7.13	3.62	6.85	15.62	-13.63	-20.21	-8.60	-4.71	0.94	-6.11	67.76	2.71	31.72	6.60	16.46	-0.79	40.00	5.32	7.85	4.82	-1.39	6.31	-46.50	8.43	-30.48	-2.59	21.51	-3.26	-29.12	3.95	-5.99	3.63	-12.34	14.06	-4.09	32.01	-16.91	1.26	2.99	-0.38	9.74	-22.55	-27.59	5.04	21.55	26.14	6.15	32.86	1.09	
-16.34	5.12	17.85	-7.43	-2.32	73.88	-4.16	15.01	-5.45	6.36	8.63	15.85	-12.00	-17.17	-7.00	-3.62	1.20	-7.14	67.87	0.20	42.70	8.21	10.06	-3.49	33.23	4.46	6.69	7.53	-3.02	6.25	-44.12	6.73	-38.14	-9.07	12.88	2.92	-22.88	3.36	-4.78	3.17	-13.01	14.66	-3.78	31.84	-17.23	3.06	0.85	-0.53	9.26	-24.96	-8.70	4.54	23.78	18.98	26.61	18.47	-6.94	
-16.86	5.20	18.25	-7.74	-1.34	73.30	-6.33	16.10	-4.03	7.23	10.32	16.21	-10.92	-15.24	-6.03	-3.40	-0.29	-8.44	66.44	-2.36	38.99	7.51	7.14	-3.57	21.83	3.34	4.53	8.23	-4.56	6.96	-41.04	7.05	-40.08	-9.12	6.40	5.41	-13.57	2.74	-2.88	3.33	-13.22	15.93	-3.71	30.57	-18.46	2.37	0.63	-0.44	8.74	-23.22	1.48	4.24	15.66	18.42	41.76	17.17	-14.92	
-17.22	5.35	18.59	-8.22	-1.15	72.80	-5.57	16.58	-3.86	5.68	11.49	17.35	-10.75	-12.64	-5.49	-4.65	-1.98	-8.90	64.01	-5.19	33.72	6.56	5.29	-3.02	4.39	2.50	0.93	6.94	-4.83	7.94	-38.53	6.11	-39.15	-7.57	-0.03	6.06	-4.52	2.44	-0.97	4.07	-13.56	15.82	-3.88	29.60	-18.16	1.19	1.06	-0.32	7.19	-19.47	9.81	3.87	4.28	19.84	52.40	15.93	-21.97	
-17.49	5.55	18.88	-9.09	-1.10	72.84	-3.82	16.56	-4.14	3.95	11.99	18.16	-11.48	-9.96	-5.37	-6.19	-2.39	-8.96	60.61	-8.70	24.65	5.74	4.28	-2.51	-8.45	2.59	-1.79	6.00	-4.34	8.16	-37.58	3.76	-32.59	-8.10	-1.92	7.35	2.00	2.40	0.43	4.61	-14.36	14.27	-4.03	28.46	-16.95	-0.20	2.01	-0.15	5.65	-19.94	11.37	3.55	3.88	17.11	47.47	15.48	-17.53	
